# xmcd CD database file
# Copyright (C) 1995-1998 Ti Kan
#
# Track frame offsets:
#	150
#	12717
#	25107
#	38215
#	51620
#	64107
#	75942
#	87735
#	99385
#	112865
#	123160
#	136900
#	149580
#	162297
#
# Disc length: 2282 seconds
#
# Revision: 1
# Processed by: cddbd v1.4b41PL1 Copyright (c) Steve Scherf et al.
# Submitted via: CDex 1.30Release
#
DISCID=bb08e80e
DTITLE=Robert Nighthawk - Bricks In My Pillow
DYEAR=1998
DGENRE=Blues
TTITLE0=Crying Won't Help You
TTITLE1=Take It Easy, Baby
TTITLE2=Seventy-Four
TTITLE3=Maggie Campbell (alternate)
TTITLE4=The Moon Is Rising
TTITLE5=Nighthawk Boogie
TTITLE6=Kansas City
TTITLE7=You Missed A Good Man
TTITLE8=Bricks In My Pillow
TTITLE9=Seventy-Four (alternate)
TTITLE10=U/S Boogie
TTITLE11=Feel So Bad
TTITLE12=Maggie Campbell
TTITLE13=The Moon Is Rising (incomplete)
EXTD=YEAR: 1998 ID3G:   0
EXTT0=
EXTT1=
EXTT2=
EXTT3=
EXTT4=
EXTT5=
EXTT6=
EXTT7=
EXTT8=
EXTT9=
EXTT10=
EXTT11=
EXTT12=
EXTT13=
PLAYORDER=
